<svg style="height: 512px; width: 512px;" xmlns="http://www.w3.org/2000/svg" viewBox="0 0 512 512"><defs><linearGradient x1="0" x2="0" y1="0" y2="1" id="gradient-2"><stop offset="0%" stop-color="#000000" stop-opacity="1"></stop><stop offset="100%" stop-color="#5f2c00" stop-opacity="1"></stop></linearGradient></defs><g class="" style="touch-action: none;" transform="translate(0,0)"><g><path d="M141.22 16.563C144.735 84.243 142.22 147.761 137.094 210.343L113.469 198.031L127.843 239.626L66.5 215.47L119.53 269.563L78.25 272.343C108.792 291.911 146.8 304.719 168.97 331.875C196.767 371.545 212.232 411.529 213.72 487.5C236.48 498.136 264.798 497.56 285.313 487.5C290.195 409.407 300.417 374.403 328.343 332.72C328.381 332.664 328.433 332.618 328.469 332.562C350.552 304.932 388.919 292.076 419.719 272.344L378.469 269.564L431.469 215.469L370.155 239.624L384.53 198.03L362.28 209.656C351.437 148.516 343.24 87.356 345.844 26.219C317.438 70.233 294.139 125.584 282.064 176.719L263.874 172.437C266.934 159.489 270.634 146.337 274.937 133.187C257.305 130.2 239.741 129.691 222.125 132.062C227.045 144.865 231.515 158.162 235.405 172.062L217.405 177.092C200.25 115.816 171.18 66.398 141.22 16.564Z" class="selected" fill="url(#gradient-2)"></path><path d="M187.97 260.938C197.382 260.868 207.06 266.188 216.688 276.188C234.705 294.902 231.411 323.858 215.781 346.718C218.551 306.252 200.631 282.844 163.876 274.218C171.576 265.268 179.664 261 187.97 260.938Z" class="" fill="#000000" fill-opacity="1"></path><path d="M314.563 260.938C322.033 260.994 329.225 264.473 335.938 271.688L335.25 274.938C300.066 284.098 282.204 307.322 283.312 346.718C268.605 323.858 266.477 294.902 285.25 276.188C295.28 266.188 305.152 260.868 314.563 260.938Z" class="" fill="#00003a" fill-opacity="1"></path></g></g></svg>